<svg width="51" height="50" viewBox="0 0 51 50" fill="none" xmlns="http://www.w3.org/2000/svg">
<g id="aimlabs-logo 1" clip-path="url(#clip0_24_161)">
<path id="Vector" d="M43.9868 41.2869C43.8534 41.0171 43.7374 40.7753 43.6213 40.5448C43.2674 39.8477 42.9077 39.145 42.5537 38.4479C42.1244 37.599 41.7008 36.7502 41.2716 35.8956C40.8306 35.0185 40.3897 34.1471 39.9545 33.2702C39.5252 32.4156 39.0958 31.5611 38.6665 30.7066C38.2313 29.8408 37.8019 28.975 37.3668 28.1092C36.9316 27.2435 36.4908 26.3834 36.0556 25.5176C35.6263 24.6631 35.1969 23.8085 34.7676 22.954C34.3208 22.0602 33.8682 21.1663 33.4156 20.2724C32.9921 19.429 32.5686 18.5802 32.145 17.7369C31.7042 16.8598 31.2574 15.9772 30.8165 15.1002C30.3871 14.2457 29.9577 13.3911 29.5284 12.5366C29.0932 11.6709 28.6639 10.8051 28.2287 9.93931C27.7935 9.06792 27.3527 8.20215 26.9176 7.33076C26.4766 6.45374 26.0356 5.5711 25.5773 4.66597C25.5076 4.78966 25.4497 4.89085 25.3974 4.99205C25.1131 5.55424 24.8289 6.12205 24.5387 6.68424C24.2371 7.28016 23.9353 7.87045 23.6335 8.46637C23.3377 9.04542 23.0476 9.62448 22.7518 10.2035C22.4558 10.7826 22.1658 11.3616 21.8698 11.9407C21.5739 12.5198 21.2839 13.0988 20.9879 13.6779C20.6921 14.2569 20.4019 14.836 20.106 15.415C19.8218 15.9772 19.5374 16.5337 19.2532 17.096C18.9689 17.6582 18.6845 18.226 18.4003 18.7882C18.0985 19.384 17.7969 19.9744 17.4952 20.5703C17.205 21.1437 16.915 21.7171 16.6249 22.2963C16.329 22.881 16.0331 23.4656 15.7372 24.0503C15.4413 24.6294 15.1512 25.2084 14.8553 25.7874C14.5768 26.344 14.2925 26.9005 14.014 27.4515C13.7239 28.0305 13.428 28.6097 13.1321 29.1887C12.8362 29.7677 12.5461 30.3468 12.2502 30.9258C11.9543 31.5105 11.6584 32.0952 11.3625 32.6798C11.0782 33.2421 10.7939 33.8098 10.5096 34.3721C10.2079 34.9679 9.90623 35.5582 9.60453 36.1542C9.32603 36.7052 9.05334 37.2561 8.76905 37.8069C8.47315 38.3973 8.17145 38.9819 7.86974 39.5723C7.59705 40.1119 7.32437 40.6516 7.05168 41.1969C7.04006 41.2139 7.02847 41.2308 6.99945 41.2702C4.55684 38.6503 2.76403 35.6819 1.67907 32.3256C0.14156 27.5695 0.106747 22.791 1.58044 18.0179C2.81045 14.0377 4.98039 10.5858 8.0554 7.69618C12.1516 3.85081 17.0542 1.55707 22.7344 0.96115C28.8553 0.320255 34.5065 1.66952 39.5948 5.0314C43.8069 7.81985 46.8763 11.5359 48.7445 16.1403C50.7229 21.0089 51.0189 26.0066 49.6844 31.0776C48.6865 34.9174 46.7602 38.3018 43.9868 41.2869Z" fill="#47D8D7"/>
<path id="Vector_2" d="M25.5134 24.9442C26.0298 25.9842 26.5289 26.9792 27.0277 27.9744C27.1844 28.2892 27.3527 28.5984 27.5093 28.9132C27.9852 29.8521 28.455 30.7853 28.925 31.7242C29.3485 32.5674 29.7721 33.4163 30.1956 34.2597C30.6308 35.1197 31.0602 35.9798 31.4953 36.84C31.9189 37.6834 32.3424 38.5323 32.7658 39.3755C33.201 40.2356 33.6303 41.0958 34.0655 41.956C34.4948 42.8048 34.9184 43.6537 35.3477 44.5082C35.7016 45.211 36.044 45.9137 36.4037 46.611C36.4618 46.7289 36.4327 46.7739 36.3224 46.8189C35.6147 47.1113 34.9184 47.4205 34.199 47.6903C33.2242 48.0556 32.2263 48.3481 31.2052 48.5673C30.6366 48.691 30.0679 48.7977 29.4994 48.8877C28.9192 48.9777 28.3332 49.0452 27.7531 49.1182C27.5674 49.1408 27.3758 49.1463 27.1844 49.1519C26.7666 49.1632 26.3547 49.1802 25.9369 49.1856C25.3742 49.1913 24.8056 49.2026 24.2429 49.1802C23.709 49.1576 23.1753 49.1182 22.6473 49.0508C21.8582 48.944 21.0692 48.8316 20.2918 48.6629C19.4098 48.4718 18.5337 48.2469 17.6692 47.9826C16.9673 47.769 16.2826 47.4823 15.5979 47.2124C15.2672 47.0831 14.9539 46.9256 14.629 46.7852C14.5072 46.7345 14.4956 46.6727 14.5594 46.5603C15.0119 45.6776 15.4587 44.795 15.9112 43.9124C16.2129 43.3221 16.5088 42.7374 16.8105 42.1471C17.089 41.5905 17.3734 41.034 17.6518 40.4831C17.9594 39.8815 18.261 39.2744 18.5685 38.6727C18.8529 38.1106 19.1371 37.554 19.4214 36.9918C19.7231 36.396 20.0248 35.7944 20.3323 35.1984C20.6166 34.6363 20.901 34.0684 21.1852 33.5063C21.4869 32.9103 21.7885 32.32 22.0903 31.7242C22.3863 31.145 22.6763 30.566 22.9723 29.9869C23.2681 29.4079 23.5582 28.8289 23.854 28.2498C24.1558 27.6539 24.4632 27.0523 24.765 26.4565C25.0029 25.9673 25.2466 25.4726 25.5134 24.9442Z" fill="#47D8D7"/>
</g>
<defs>
<clipPath id="clip0_24_161">
<rect width="50" height="50" fill="white" transform="translate(0.5)"/>
</clipPath>
</defs>
</svg>
